SplineFontDB: 3.0
FontName: TurtleBase-2steps
FullName: TurtleBase 2 Steps
FamilyName: TurtleBase-2steps
Weight: Medium
Copyright: Created by Ludi,,, with FontForge 2.0 (http://fontforge.sf.net)
UComments: "2012-11-21: Created." 
Version: 001.000
ItalicAngle: 0
UnderlinePosition: -100
UnderlineWidth: 50
Ascent: 800
Descent: 200
UFOAscent: 800
UFODescent: -200
LayerCount: 2
Layer: 0 0 "Back"  1
Layer: 1 0 "Fore"  0
OS2Version: 0
OS2_WeightWidthSlopeOnly: 0
OS2_UseTypoMetrics: 0
CreationTime: 1353594788
ModificationTime: 1353597895
OS2TypoAscent: 0
OS2TypoAOffset: 1
OS2TypoDescent: 0
OS2TypoDOffset: 1
OS2TypoLinegap: 0
OS2WinAscent: 0
OS2WinAOffset: 1
OS2WinDescent: 0
OS2WinDOffset: 1
HheadAscent: 0
HheadAOffset: 1
HheadDescent: 0
HheadDOffset: 1
OS2Vendor: 'PfEd'
DEI: 91125
LangName: 1033 "" "" "" "" "" "Version 001.000" 
Encoding: UnicodeBmp
Compacted: 1
UnicodeInterp: none
NameList: Adobe Glyph List
DisplaySize: -72
AntiAlias: 1
FitToEm: 1
WinInfo: 0 8 2
Grid
-1000 227.098434448 m 0
 2000 227.098434448 l 0
EndSplineSet
BeginChars: 65537 41

StartChar: zero
Encoding: 48 48 0
Width: 1000
VWidth: 0
GlyphClass: 2
Flags: W
LayerCount: 2
Fore
SplineSet
325.583 -94.6074 m 1
 297.393 -104.868 l 1
 158.559 -104.869 l 1
 37.748 -35.1191 l 1
 -18.8213 21.4512 l 1
 -32.502 59.0391 l 1
 -4.31152 69.2998 l 1
 52.2578 12.7295 l 1
 173.068 -57.0205 l 1
 311.902 -57.0195 l 1
 325.583 -94.6074 l 1
140.365 126.536 m 1
 168.556 136.797 l 1
 222.566 105.613 l 1
 362.066 105.613 l 1
 375.748 68.0264 l 1
 347.557 57.7656 l 1
 208.056 57.7656 l 1
 154.046 88.9482 l 1
 140.365 126.536 l 1
375.748 68.0264 m 1
 347.557 57.7656 l 1
 208.056 57.7656 l 1
 154.166 88.8779 l 1
 140.485 126.466 l 1
 415.649 603.066 l 1
 443.841 613.327 l 1
 446.563 608.613 l 1
 460.244 571.025 l 1
 460.244 152.522 l 1
 429.315 98.9531 l 1
 375.748 68.0264 l 1
351.648 105.613 m 1
 387.444 126.28 l 1
 418.372 179.85 l 1
 418.372 507.931 l 1
 195.213 121.406 l 1
 222.566 105.613 l 1
 351.648 105.613 l 1
302.15 -57.0205 m 1
 405.19 2.46875 l 1
 511.257 108.536 l 1
 581.007 229.347 l 1
 581.006 633.958 l 1
 524.938 731.072 l 1
 521.021 741.83 l 1
 472.583 790.27 l 1
 467.206 788.312 l 1
 347.557 857.394 l 1
 218.476 857.393 l 1
 115.436 797.903 l 1
 9.37012 691.836 l 1
 -60.3818 571.024 l 1
 -60.3818 166.415 l 1
 -4.31152 69.2998 l 1
 52.2578 12.7295 l 1
 173.068 -57.0205 l 1
 302.15 -57.0205 l 1
298.06 -104.869 m 1
 158.559 -104.869 l 1
 37.748 -35.1191 l 1
 -18.8213 21.4512 l 1
 -88.5723 142.263 l 1
 -102.253 179.851 l 1
 -102.254 598.352 l 1
 -32.502 719.163 l 1
 73.5645 825.23 l 1
 194.376 894.98 l 1
 222.566 905.241 l 1
 362.066 905.242 l 1
 479.239 837.592 l 1
 485.383 839.828 l 1
 541.951 783.259 l 1
 550.495 759.785 l 1
 609.197 658.11 l 1
 622.878 620.522 l 1
 622.879 202.02 l 1
 553.129 81.209 l 1
 447.062 -24.8584 l 1
 326.25 -94.6084 l 1
 298.06 -104.869 l 1
104.976 197.306 m 1
 76.7842 187.045 l 1
 74.0625 191.76 l 1
 60.3818 229.348 l 1
 60.3818 647.85 l 1
 91.3096 701.418 l 1
 144.877 732.346 l 1
 173.068 742.606 l 1
 312.57 742.606 l 1
 366.461 711.492 l 1
 380.142 673.905 l 1
 104.976 197.306 l 1
102.253 292.441 m 1
 325.414 678.965 l 1
 298.06 694.758 l 1
 168.977 694.758 l 1
 133.181 674.092 l 1
 102.254 620.522 l 1
 102.253 292.441 l 1
EndSplineSet
EndChar

StartChar: one
Encoding: 49 49 1
Width: 1000
VWidth: 0
GlyphClass: 2
Flags: W
LayerCount: 2
Fore
SplineSet
177.725 -48.0557 m 1
 264.564 38.7852 l 1
 264.565 814.506 l 1
 228.961 850.11 l 1
 45.6855 696.324 l 1
 -48.4287 602.211 l 1
 -24.7773 578.561 l 1
 101.931 684.881 l 1
 130.121 695.142 l 1
 143.802 657.554 l 1
 143.802 -14.1338 l 1
 177.725 -48.0557 l 1
172.18 -104.869 m 1
 115.611 -48.3008 l 1
 101.931 -10.7139 l 1
 101.931 622.419 l 1
 -3.81348 533.689 l 1
 -32.0039 523.429 l 1
 -88.5723 579.997 l 1
 -102.253 617.585 l 1
 3.81348 723.651 l 1
 207.997 894.981 l 1
 236.188 905.242 l 1
 292.756 848.673 l 1
 306.438 811.085 l 1
 306.437 11.458 l 1
 200.37 -94.6084 l 1
 172.18 -104.869 l 1
EndSplineSet
EndChar

StartChar: three
Encoding: 51 51 2
Width: 1000
VWidth: 0
GlyphClass: 2
Flags: W
LayerCount: 2
Fore
SplineSet
-48.4277 0.697266 m 1
 -17.4932 -30.2373 l 1
 82.459 -57.0215 l 1
 157.919 -36.8008 l 1
 333.46 138.737 l 1
 360.241 238.69 l 1
 342.21 305.987 l 1
 247.187 401.011 l 1
 233.505 438.598 l 1
 333.459 538.552 l 1
 360.242 638.506 l 1
 342.21 705.803 l 1
 217.401 830.611 l 1
 117.447 857.394 l 1
 41.9873 837.175 l 1
 -48.4277 746.759 l 1
 -17.4941 715.825 l 1
 82.46 742.606 l 1
 182.413 715.825 l 1
 186.926 711.312 196.298 706.016 198.685 700.197 c 2
 212.365 662.609 l 2
 212.871 661.377 212.353 662.919 212.697 661.635 c 2
 239.479 561.681 l 1
 219.647 487.671 l 1
 191.457 477.41 l 1
 141.94 464.143 l 1
 51.5244 373.729 l 1
 82.459 342.794 l 1
 182.413 316.011 l 1
 186.926 311.498 196.298 306.199 198.685 300.382 c 2
 212.365 262.794 l 2
 212.871 261.562 212.353 263.104 212.696 261.82 c 2
 239.479 161.866 l 1
 219.647 87.8574 l 1
 191.457 77.5967 l 1
 117.447 57.7646 l 1
 31.6348 80.7588 l 1
 -48.4277 0.697266 l 1
-102.252 16.0713 m 1
 3.81348 122.136 l 1
 32.0039 132.396 l 1
 131.957 105.613 l 1
 178.558 118.101 l 1
 197.607 189.193 l 1
 178.867 259.133 l 1
 173.188 263.946 170.974 265.092 167.903 268.162 c 1
 67.9492 294.945 l 1
 11.3799 351.515 l 1
 -2.30078 389.103 l 1
 103.767 495.168 l 1
 131.958 505.429 l 1
 178.558 517.914 l 1
 197.607 589.008 l 1
 178.867 658.949 l 1
 173.189 663.762 170.974 664.907 167.903 667.978 c 1
 67.9502 694.758 l 1
 -32.0039 667.978 l 1
 -88.5723 724.545 l 1
 -102.253 762.133 l 1
 3.81348 868.199 l 1
 32.0039 878.46 l 1
 131.957 905.242 l 1
 231.911 878.46 l 1
 361.65 748.72 l 1
 375.332 711.133 l 1
 402.113 611.179 l 1
 375.331 511.225 l 1
 287.33 423.225 l 1
 361.65 348.905 l 1
 375.331 311.317 l 1
 402.113 211.363 l 1
 375.331 111.41 l 1
 196.094 -67.8242 l 1
 167.902 -78.085 l 1
 67.9492 -104.87 l 1
 -32.0029 -78.0859 l 1
 -88.5713 -21.5166 l 1
 -102.252 16.0713 l 1
EndSplineSet
EndChar

StartChar: two
Encoding: 50 50 3
Width: 1000
VWidth: 0
GlyphClass: 2
Flags: W
LayerCount: 2
Fore
SplineSet
563.723 28.4072 m 1
 532.789 59.3408 l 1
 121.529 59.3418 l 1
 107.849 96.9297 l 1
 564.712 641.399 l 1
 532.732 673.379 l 1
 323.183 849.213 l 1
 235.558 761.589 l 1
 62.4521 555.288 l 1
 85.4678 532.273 l 1
 172.308 619.113 l 1
 260.269 723.943 l 1
 288.46 734.204 l 1
 436.694 609.819 l 1
 450.375 572.232 l 1
 -49.4736 -23.4639 l 1
 -17.4932 -55.4453 l 1
 479.871 -55.4453 l 1
 563.723 28.4072 l 1
617.548 13.0332 m 1
 511.481 -93.0332 l 1
 483.291 -103.294 l 1
 -32.0029 -103.294 l 1
 -88.5723 -46.7236 l 1
 -102.253 -9.13574 l 1
 395.647 584.238 l 1
 285.44 676.714 l 1
 214.179 591.786 l 1
 108.113 485.72 l 1
 79.9229 475.46 l 1
 23.3545 532.028 l 1
 9.67285 569.616 l 1
 193.686 788.916 l 1
 299.752 894.98 l 1
 327.943 905.241 l 1
 547.242 721.228 l 1
 603.811 664.659 l 1
 617.491 627.071 l 1
 181.26 107.19 l 1
 547.3 107.189 l 1
 603.867 50.6211 l 1
 617.548 13.0332 l 1
EndSplineSet
EndChar

StartChar: four
Encoding: 52 52 4
Width: 1000
VWidth: 0
GlyphClass: 2
Flags: W
LayerCount: 2
Fore
SplineSet
404.265 438.052 m 1
 432.455 448.312 l 1
 604.203 448.312 l 1
 660.771 391.743 l 1
 674.452 354.155 l 1
 568.387 248.089 l 1
 540.195 237.828 l 1
 445.986 237.828 l 1
 445.986 11.4561 l 1
 417.796 1.19629 l 1
 404.115 38.7832 l 1
 404.114 275.416 l 1
 432.306 285.677 l 1
 536.775 285.677 l 1
 620.627 369.529 l 1
 589.692 400.464 l 1
 417.945 400.464 l 1
 404.265 438.052 l 1
567.721 248.09 m 1
 539.53 237.829 l 1
 445.986 237.828 l 1
 445.986 11.4561 l 1
 339.921 -94.6084 l 1
 311.73 -104.869 l 1
 255.162 -48.3008 l 1
 241.481 -10.7139 l 1
 241.48 237.829 l 1
 -30.9668 237.828 l 2
 -31.3438 238.205 -31.1963 238.583 -31.9775 238.583 c 2
 -88.5723 295.177 l 1
 -102.253 332.765 l 1
 241.481 788.915 l 1
 347.548 894.981 l 1
 375.738 905.242 l 1
 432.307 848.673 l 1
 445.988 811.085 l 1
 445.987 448.312 l 1
 604.203 448.312 l 1
 617.884 410.725 l 1
 589.692 400.464 l 1
 417.797 400.464 l 1
 404.116 438.052 l 1
 404.116 814.506 l 1
 370.193 848.429 l 1
 283.354 761.588 l 1
 -50.1084 319.071 l 1
 -17.4678 286.431 l 2
 -16.6865 286.432 -16.834 286.054 -16.4561 285.677 c 2
 269.671 285.678 l 1
 283.352 248.09 l 1
 283.353 -14.1338 l 1
 317.275 -48.0557 l 1
 404.115 38.7832 l 1
 404.114 275.416 l 1
 432.306 285.677 l 1
 554.04 285.677 l 1
 567.721 248.09 l 1
283.353 410.724 m 1
 255.162 400.463 l 1
 116.102 400.463 l 1
 102.421 438.051 l 1
 241.481 622.589 l 1
 269.673 632.85 l 1
 283.354 595.262 l 1
 283.353 410.724 l 1
241.481 448.312 m 1
 241.481 539.696 l 1
 172.617 448.312 l 1
 241.481 448.312 l 1
EndSplineSet
EndChar

StartChar: five
Encoding: 53 53 5
Width: 1000
VWidth: 0
GlyphClass: 2
Flags: W
LayerCount: 2
Fore
SplineSet
564.314 826.459 m 1
 533.379 857.394 l 1
 80.707 857.393 l 1
 -15.0986 761.587 l 1
 -15.0986 588.968 l 1
 27.2451 546.625 l 1
 48.7344 555.022 l 1
 76.9248 565.283 l 1
 128.42 575.034 l 1
 180.709 575.034 l 1
 232.203 565.284 l 1
 281.339 546.079 l 1
 325.628 518.621 l 1
 343.721 495.466 l 1
 369.865 446.837 l 1
 383.546 409.249 l 1
 401.431 356.484 l 1
 410.511 301.189 l 1
 410.51 245.037 l 1
 401.431 189.739 l 1
 383.547 136.977 l 1
 362.943 98.6553 l 1
 344.518 87.2305 l 1
 295.382 68.0264 l 1
 267.19 57.7656 l 1
 215.697 48.0146 l 1
 163.408 48.0146 l 1
 111.913 57.7656 l 1
 62.7773 76.9697 l 1
 28.5625 98.1836 l 1
 -48.4287 21.1934 l 1
 -17.4941 -9.74121 l 1
 27.79 -37.8164 l 1
 76.9248 -57.0205 l 1
 128.42 -66.7715 l 1
 180.709 -66.7715 l 1
 228.439 -57.7334 l 1
 253.147 -48.0752 l 1
 298.433 -20.001 l 1
 338.487 16.0918 l 1
 444.555 122.157 l 1
 478.165 165.173 l 1
 504.309 213.801 l 1
 522.194 266.563 l 1
 531.273 321.86 l 1
 531.274 378.013 l 1
 522.194 433.31 l 1
 515.445 453.219 l 1
 491.846 497.115 l 1
 458.235 540.129 l 1
 401.667 596.696 l 1
 361.61 632.789 l 1
 316.326 660.865 l 1
 267.19 680.069 l 1
 215.697 689.821 l 1
 163.408 689.821 l 1
 119.347 681.477 l 1
 105.665 719.064 l 1
 105.665 732.346 l 1
 133.855 742.606 l 1
 480.461 742.606 l 1
 564.314 826.459 l 1
618.14 811.086 m 1
 512.072 705.019 l 1
 483.882 694.758 l 1
 353.345 694.758 l 1
 376.12 680.638 l 1
 416.177 644.545 l 1
 472.745 587.978 l 1
 506.355 544.963 l 1
 532.5 496.334 l 1
 546.181 458.747 l 1
 564.065 405.982 l 1
 573.146 350.686 l 1
 573.145 294.533 l 1
 564.065 239.236 l 1
 546.181 186.474 l 1
 520.036 137.846 l 1
 486.427 94.8301 l 1
 380.359 -11.2354 l 1
 340.304 -47.3281 l 1
 295.02 -75.4023 l 1
 245.884 -94.6084 l 1
 217.693 -104.869 l 1
 166.199 -114.62 l 1
 113.91 -114.62 l 1
 62.415 -104.869 l 1
 13.2793 -85.665 l 1
 -32.0039 -57.5898 l 1
 -88.5723 -1.02051 l 1
 -102.254 36.5674 l 1
 3.81348 142.634 l 1
 32.0039 152.895 l 1
 77.2871 124.818 l 1
 126.423 105.613 l 1
 177.918 95.8633 l 1
 230.207 95.8633 l 1
 277.94 104.901 l 1
 302.646 114.558 l 1
 321.071 125.982 l 1
 341.675 164.304 l 1
 359.56 217.066 l 1
 368.638 272.364 l 1
 368.639 328.517 l 1
 359.56 383.812 l 1
 352.811 403.721 l 1
 329.211 447.617 l 1
 311.118 470.772 l 1
 266.829 498.231 l 1
 217.693 517.436 l 1
 166.199 527.187 l 1
 113.91 527.187 l 1
 66.1719 518.146 l 1
 41.4697 508.492 l 1
 13.2793 498.232 l 1
 -43.2891 554.8 l 1
 -56.9697 592.388 l 1
 -56.9697 788.914 l 1
 49.0957 894.98 l 1
 77.2861 905.241 l 1
 547.889 905.242 l 1
 604.458 848.674 l 1
 618.14 811.086 l 1
EndSplineSet
EndChar

StartChar: six
Encoding: 54 54 6
Width: 1000
VWidth: 0
GlyphClass: 2
Flags: W
LayerCount: 2
Fore
SplineSet
74.0625 457.58 m 1
 60.3818 495.168 l 1
 60.3809 732.346 l 1
 88.5723 742.606 l 1
 764.204 742.606 l 1
 848.057 826.458 l 1
 817.122 857.393 l 1
 35.4238 857.394 l 1
 -60.3818 761.588 l 1
 -60.3818 -14.1338 l 1
 -17.4941 -57.0215 l 1
 764.204 -57.0215 l 1
 860.01 38.7842 l 1
 860.01 414.692 l 1
 817.122 457.581 l 1
 74.0625 457.58 l 1
102.253 505.429 m 1
 831.632 505.429 l 1
 888.2 448.859 l 1
 901.881 411.272 l 1
 901.882 11.457 l 1
 795.814 -94.6094 l 1
 767.624 -104.87 l 1
 -32.0039 -104.869 l 1
 -88.5723 -48.3018 l 1
 -102.253 -10.7139 l 1
 -102.253 788.915 l 1
 3.8125 894.981 l 1
 32.0039 905.242 l 1
 831.632 905.241 l 1
 888.2 848.672 l 1
 901.882 811.084 l 1
 795.815 705.019 l 1
 767.624 694.759 l 1
 102.253 694.759 l 1
 102.253 505.429 l 1
60.3809 332.532 m 1
 88.5723 342.793 l 1
 725.565 342.795 l 1
 739.246 305.207 l 1
 739.246 68.0254 l 1
 711.056 57.7646 l 1
 74.0625 57.7646 l 1
 60.3818 95.3525 l 1
 60.3809 332.532 l 1
102.253 294.945 m 1
 102.253 105.613 l 1
 697.375 105.613 l 1
 697.374 294.946 l 1
 102.253 294.945 l 1
EndSplineSet
EndChar

StartChar: nine
Encoding: 57 57 7
Width: 1000
VWidth: 0
GlyphClass: 2
Flags: W
LayerCount: 2
Fore
SplineSet
310.391 374.247 m 1
 338.582 384.507 l 1
 352.263 346.92 l 1
 352.262 112.997 l 1
 335.801 84.4873 l 1
 307.288 68.0254 l 1
 213.177 -26.0869 l 1
 240.297 -53.207 l 1
 311.674 -11.9971 l 1
 417.739 94.0674 l 1
 473.024 189.821 l 1
 473.023 673.482 l 1
 431.421 745.542 l 1
 374.853 802.11 l 1
 279.098 857.394 l 1
 178.951 857.393 l 1
 100.968 812.37 l 1
 -5.09863 706.305 l 1
 -60.3818 610.551 l 1
 -60.3818 513.876 l 1
 -18.7793 441.818 l 1
 37.7891 385.248 l 1
 133.545 329.964 l 1
 233.691 329.964 l 1
 310.391 374.247 l 1
310.391 322.745 m 1
 257.791 292.377 l 1
 229.601 282.116 l 1
 119.035 282.115 l 1
 23.2793 337.399 l 1
 -33.2891 393.97 l 1
 -88.5723 489.724 l 1
 -102.253 527.312 l 1
 -102.254 637.878 l 1
 -46.9697 733.632 l 1
 59.0967 839.697 l 1
 154.852 894.98 l 1
 183.042 905.241 l 1
 293.607 905.241 l 1
 389.362 849.959 l 1
 445.931 793.391 l 1
 501.215 697.635 l 1
 514.896 660.047 l 1
 514.896 162.494 l 1
 459.611 66.7402 l 1
 353.546 -39.3242 l 1
 257.792 -94.6084 l 1
 229.601 -104.869 l 1
 173.032 -48.3018 l 1
 159.352 -10.7139 l 1
 265.417 95.3525 l 1
 293.93 111.814 l 1
 310.391 140.324 l 1
 310.391 322.745 l 1
352.262 480.977 m 1
 307.289 455.011 l 1
 279.098 444.75 l 1
 168.532 444.751 l 1
 108.64 479.328 l 1
 74.0625 539.221 l 1
 60.3818 576.809 l 1
 60.3809 687.375 l 1
 76.8428 715.886 l 1
 105.354 732.346 l 1
 133.544 742.606 l 1
 244.109 742.606 l 1
 304.002 708.028 l 1
 338.581 648.137 l 1
 352.262 610.549 l 1
 352.262 480.977 l 1
310.391 508.304 m 1
 310.391 623.983 l 1
 289.492 660.18 l 1
 229.599 694.759 l 1
 129.452 694.758 l 1
 118.714 688.559 l 1
 102.253 660.048 l 1
 102.253 563.373 l 1
 123.15 527.177 l 1
 183.042 492.6 l 1
 283.188 492.599 l 1
 310.391 508.304 l 1
EndSplineSet
EndChar

StartChar: eight
Encoding: 56 56 8
Width: 1000
VWidth: 0
GlyphClass: 2
Flags: W
LayerCount: 2
Fore
SplineSet
-88.5723 351.515 m 1
 -102.253 389.103 l 1
 -102.253 788.915 l 1
 3.8125 894.981 l 1
 32.0039 905.242 l 1
 45.6846 867.654 l 1
 -60.3818 761.588 l 1
 -60.3818 361.775 l 1
 -88.5723 351.515 l 1
-60.3818 761.588 m 1
 -60.3818 -14.1338 l 1
 -17.4941 -57.0215 l 1
 364.39 -57.0215 l 1
 460.194 38.7842 l 1
 460.194 814.505 l 1
 417.307 857.393 l 1
 35.4238 857.394 l 1
 -60.3818 761.588 l 1
-102.253 788.915 m 1
 3.8125 894.981 l 1
 32.0039 905.242 l 1
 431.816 905.241 l 1
 488.385 848.672 l 1
 502.065 811.084 l 1
 502.065 11.457 l 1
 396.001 -94.6094 l 1
 367.81 -104.87 l 1
 -32.0039 -104.869 l 1
 -88.5723 -48.3018 l 1
 -102.253 -10.7139 l 1
 -102.253 788.915 l 1
60.3809 732.346 m 1
 88.5723 742.606 l 1
 325.75 742.606 l 1
 339.432 705.02 l 1
 339.432 467.841 l 1
 311.241 457.58 l 1
 74.0625 457.58 l 1
 60.3818 495.168 l 1
 60.3809 732.346 l 1
102.253 694.759 m 1
 102.253 505.429 l 1
 297.561 505.429 l 1
 297.56 694.759 l 1
 102.253 694.759 l 1
60.3809 332.532 m 1
 88.5723 342.793 l 1
 325.751 342.795 l 1
 339.432 305.207 l 1
 339.432 68.0254 l 1
 311.241 57.7646 l 1
 74.0625 57.7646 l 1
 60.3818 95.3525 l 1
 60.3809 332.532 l 1
102.253 294.945 m 1
 102.253 105.613 l 1
 297.561 105.613 l 1
 297.561 294.946 l 1
 102.253 294.945 l 1
EndSplineSet
EndChar

StartChar: question
Encoding: 63 63 9
Width: 1000
VWidth: 0
GlyphClass: 2
Flags: W
LayerCount: 2
Fore
SplineSet
-26.459 456.408 m 1
 60.3809 543.249 l 1
 60.3818 590.741 l 1
 68.6289 637.513 l 1
 84.8721 682.139 l 1
 94.2852 698.442 l 1
 110.589 707.856 l 1
 183.406 734.361 l 1
 230.178 742.606 l 1
 277.67 742.606 l 1
 324.439 734.36 l 1
 369.066 718.116 l 1
 410.196 694.37 l 1
 415.818 689.653 l 1
 420.535 684.031 l 1
 444.282 642.902 l 1
 474.206 560.688 l 1
 482.452 513.917 l 1
 482.452 466.425 l 1
 474.206 419.653 l 1
 457.962 375.026 l 1
 448.549 358.724 l 1
 432.245 349.31 l 1
 387.619 333.067 l 1
 369.428 317.803 l 1
 263.361 211.737 l 1
 251.489 191.172 l 1
 251.489 120.096 l 1
 285.411 86.1738 l 1
 372.252 173.015 l 1
 372.251 232.116 l 1
 382.005 237.748 l 1
 418.387 268.275 l 1
 524.453 374.341 l 1
 554.979 410.722 l 1
 578.726 451.852 l 1
 594.969 496.479 l 1
 603.216 543.25 l 1
 603.216 590.741 l 1
 594.97 637.508 l 1
 592.406 644.551 l 1
 568.659 685.681 l 1
 538.134 722.062 l 1
 481.565 778.631 l 1
 445.184 809.157 l 1
 404.055 832.903 l 1
 359.428 849.146 l 1
 312.656 857.394 l 1
 265.164 857.394 l 1
 218.394 849.146 l 1
 201.957 843.163 l 1
 160.829 819.417 l 1
 124.447 788.891 l 1
 18.3818 682.824 l 1
 -12.1455 646.443 l 1
 -35.8916 605.315 l 1
 -52.1348 560.688 l 1
 -60.3818 513.917 l 1
 -60.3818 490.331 l 1
 -26.459 456.408 l 1
-32.0039 399.596 m 1
 -88.5723 456.163 l 1
 -102.253 493.751 l 1
 -102.254 541.244 l 1
 -94.0059 588.016 l 1
 -77.7637 632.643 l 1
 -54.0166 673.771 l 1
 -23.4902 710.151 l 1
 82.5762 816.218 l 1
 118.957 846.744 l 1
 160.085 870.49 l 1
 232.903 896.994 l 1
 279.675 905.242 l 1
 327.167 905.241 l 1
 373.938 896.995 l 1
 418.564 880.751 l 1
 459.693 857.006 l 1
 496.075 826.479 l 1
 552.644 769.91 l 1
 583.17 733.529 l 1
 606.916 692.399 l 1
 636.841 610.186 l 1
 645.087 563.414 l 1
 645.087 515.923 l 1
 636.84 469.152 l 1
 620.597 424.524 l 1
 596.852 383.395 l 1
 566.324 347.014 l 1
 460.258 240.948 l 1
 423.877 210.421 l 1
 414.123 204.789 l 1
 414.123 145.688 l 1
 308.058 39.6211 l 1
 279.866 29.3604 l 1
 223.298 85.9287 l 1
 209.617 123.516 l 1
 209.617 218.499 l 1
 221.49 239.064 l 1
 327.557 345.13 l 1
 345.747 360.395 l 1
 390.373 376.637 l 1
 406.677 386.051 l 1
 416.091 402.354 l 1
 432.334 446.98 l 1
 440.581 493.752 l 1
 440.581 541.244 l 1
 432.334 588.015 l 1
 429.772 595.054 l 1
 406.024 636.184 l 1
 401.309 641.805 l 1
 395.687 646.522 l 1
 354.556 670.269 l 1
 309.93 686.512 l 1
 263.16 694.758 l 1
 215.667 694.758 l 1
 168.901 686.514 l 1
 152.46 680.529 l 1
 136.156 671.116 l 1
 126.743 654.812 l 1
 110.5 610.186 l 1
 102.254 563.414 l 1
 102.253 515.922 l 1
 -3.81348 409.855 l 1
 -32.0039 399.596 l 1
338.329 76.2988 m 1
 251.569 -10.46 l 1
 285.411 -44.3018 l 1
 372.171 42.457 l 1
 338.329 76.2988 l 1
343.874 133.112 m 1
 400.442 76.5439 l 1
 414.123 38.957 l 1
 414.124 15.2109 l 1
 308.057 -90.8545 l 1
 279.865 -101.115 l 1
 223.298 -44.5459 l 1
 209.617 -6.95801 l 1
 209.617 16.7861 l 1
 315.684 122.852 l 1
 343.874 133.112 l 1
EndSplineSet
EndChar

StartChar: hyphen
Encoding: 45 45 10
Width: 1000
VWidth: 0
GlyphClass: 2
Flags: W
LayerCount: 2
Fore
SplineSet
-48.4277 773.541 m 1
 -17.4941 742.607 l 1
 195.546 742.606 l 1
 279.398 826.459 l 1
 248.464 857.394 l 1
 35.4238 857.394 l 1
 -48.4277 773.541 l 1
-102.253 788.915 m 1
 3.8125 894.981 l 1
 32.0039 905.242 l 1
 262.974 905.242 l 1
 319.543 848.673 l 1
 333.224 811.085 l 1
 227.156 705.019 l 1
 198.966 694.758 l 1
 -32.0039 694.759 l 1
 -88.5723 751.327 l 1
 -102.253 788.915 l 1
EndSplineSet
EndChar

StartChar: seven
Encoding: 55 55 11
Width: 1000
VWidth: 0
GlyphClass: 2
Flags: W
LayerCount: 2
Fore
SplineSet
107.974 -48.0566 m 1
 194.814 38.7842 l 1
 479.475 820.885 l 1
 442.967 857.393 l 1
 35.4238 857.394 l 1
 -48.4277 773.541 l 1
 -17.4941 742.607 l 1
 330.821 742.606 l 1
 344.502 705.019 l 1
 80.4297 -20.5127 l 1
 107.974 -48.0566 l 1
102.429 -104.87 m 1
 45.8594 -48.3008 l 1
 32.1787 -10.7129 l 1
 288.949 694.759 l 1
 -32.0039 694.759 l 1
 -88.5723 751.327 l 1
 -102.253 788.915 l 1
 3.8125 894.981 l 1
 32.0039 905.242 l 1
 457.477 905.241 l 1
 514.045 848.674 l 1
 527.726 811.086 l 1
 236.687 11.458 l 1
 130.619 -94.6094 l 1
 102.429 -104.87 l 1
150.126 433.163 m 1
 181.06 402.229 l 1
 361.685 402.229 l 1
 445.537 486.081 l 1
 414.602 517.016 l 1
 233.978 517.015 l 1
 150.126 433.163 l 1
96.3008 448.536 m 1
 202.366 554.603 l 1
 230.558 564.863 l 1
 429.111 564.864 l 1
 485.682 508.295 l 1
 499.362 470.708 l 1
 393.295 364.641 l 1
 365.104 354.38 l 1
 166.55 354.381 l 1
 109.981 410.948 l 1
 96.3008 448.536 l 1
EndSplineSet
EndChar

StartChar: C
Encoding: 67 67 12
Width: 1000
VWidth: 0
GlyphClass: 2
Flags: W
LayerCount: 2
Fore
SplineSet
26.458 548.109 m 1
 -60.3818 461.27 l 1
 -57.5137 261.782 l 1
 38.9443 100.121 l 1
 95.5137 43.5518 l 1
 282.824 -61.0322 l 1
 486.066 -58.1113 l 1
 653.371 41.7129 l 1
 747.483 135.825 l 1
 720.657 162.651 l 1
 560.511 67.0977 l 1
 532.319 56.8369 l 1
 317.812 53.7539 l 1
 164.715 139.235 l 1
 77.1455 285.997 l 1
 63.4639 323.585 l 1
 60.7305 513.838 l 1
 26.458 548.109 l 1
32.0029 604.923 m 1
 88.5723 548.354 l 1
 102.254 510.767 l 1
 105.12 311.279 l 1
 179.225 187.084 l 1
 332.322 101.602 l 1
 535.564 104.523 l 1
 702.868 204.348 l 1
 731.059 214.608 l 1
 787.627 158.039 l 1
 801.308 120.451 l 1
 695.242 14.3857 l 1
 511.013 -95.5371 l 1
 482.822 -105.798 l 1
 268.314 -108.881 l 1
 81.0039 -4.2959 l 1
 24.4346 52.2725 l 1
 -85.4893 236.5 l 1
 -99.1699 274.088 l 1
 -102.253 488.597 l 1
 3.8125 594.662 l 1
 32.0029 604.923 l 1
739.061 721.875 m 1
 708.127 752.809 l 1
 520.814 857.394 l 1
 317.572 854.473 l 1
 150.27 754.646 l 1
 44.2031 648.58 l 1
 -51.8154 476.61 l 1
 -26.459 451.254 l 1
 60.3818 538.094 l 1
 129.146 661.254 l 1
 243.127 729.264 l 1
 271.318 739.523 l 1
 485.827 742.606 l 1
 661.634 644.445 l 1
 739.061 721.875 l 1
792.886 706.501 m 1
 686.82 600.434 l 1
 658.63 590.173 l 1
 471.317 694.758 l 1
 268.074 691.838 l 1
 171.019 633.927 l 1
 102.254 510.767 l 1
 -3.8125 404.701 l 1
 -32.0039 394.44 l 1
 -88.5723 451.009 l 1
 -102.253 488.597 l 1
 2.33203 675.907 l 1
 108.397 781.974 l 1
 292.626 891.898 l 1
 320.816 902.158 l 1
 535.324 905.242 l 1
 722.637 800.657 l 1
 779.204 744.089 l 1
 792.886 706.501 l 1
EndSplineSet
EndChar

StartChar: parenright
Encoding: 41 41 13
Width: 1000
VWidth: 0
GlyphClass: 2
Flags: W
LayerCount: 2
Fore
SplineSet
-26.459 -48.0557 m 1
 294.586 272.99 l 1
 294.587 580.3 l 1
 26.459 848.429 l 1
 -48.4277 773.541 l 1
 -17.4941 742.607 l 2
 19.8926 705.221 131.539 650.168 155.812 587.345 c 1
 155.812 587.345 156.105 586.561 156.33 585.931 c 2
 170.012 548.343 l 2
 172.478 541.426 173.823 534.434 173.823 527.384 c 2
 173.824 196.166 l 1
 -48.4277 -26.0869 l 1
 -26.459 -48.0557 l 1
-32.0039 -104.869 m 1
 -88.5723 -48.3018 l 1
 -102.253 -10.7139 l 1
 131.952 223.493 l 1
 131.952 554.711 l 2
 131.952 555.938 131.871 557.712 131.871 557.712 c 1
 96.3555 612.32 1.62305 661.132 -32.0039 694.759 c 2
 -88.5723 751.327 l 1
 -102.253 788.915 l 1
 3.8125 894.981 l 1
 32.0039 905.242 l 1
 322.777 614.468 l 1
 336.458 576.88 l 1
 336.458 245.663 l 1
 -3.81348 -94.6084 l 1
 -32.0039 -104.869 l 1
EndSplineSet
EndChar

StartChar: ampersand
Encoding: 38 38 14
Width: 1000
VWidth: 0
GlyphClass: 2
Flags: W
LayerCount: 2
Fore
SplineSet
468.479 324.828 m 1
 440.288 314.567 l 1
 341.746 432.007 l 1
 328.065 469.594 l 1
 432.652 574.182 l 1
 466.053 613.985 l 1
 483.822 662.812 l 1
 483.824 714.775 l 1
 479.732 726.018 l 1
 446.333 765.82 l 1
 389.765 822.389 l 1
 344.765 848.369 l 1
 293.593 857.393 l 1
 257.419 851.015 l 1
 225.61 832.65 l 1
 119.545 726.584 l 1
 86.1436 686.779 l 1
 68.373 637.95 l 1
 68.3721 585.988 l 1
 72.4629 574.749 l 1
 110.226 529.744 l 1
 123.906 492.157 l 1
 110.816 481.174 l 1
 4.75 375.107 l 1
 -32.5059 321.899 l 1
 -54.7197 260.864 l 1
 -60.3818 196.16 l 1
 -51.4424 145.46 l 1
 -35.334 110.915 l 1
 6.41797 61.1592 l 1
 62.9854 4.59082 l 1
 116.191 -32.6641 l 1
 177.226 -54.8779 l 1
 241.931 -60.54 l 1
 295.948 -51.0156 l 1
 336.573 -32.0723 l 1
 386.329 9.67969 l 1
 453.473 76.8223 l 1
 481.663 87.083 l 1
 489.967 77.1865 l 1
 537.57 29.584 l 1
 614.7 106.714 l 1
 558.663 173.494 l 1
 544.982 211.082 l 1
 551.864 229.985 l 1
 557.526 294.69 l 1
 551.365 329.631 l 1
 512.323 368.671 l 1
 468.479 324.828 l 1
446.618 372.165 m 1
 489.678 415.224 l 1
 517.868 425.484 l 1
 574.438 368.917 l 1
 588.118 331.329 l 1
 599.397 267.363 l 1
 593.735 202.658 l 1
 592.258 198.6 l 1
 652.602 126.686 l 1
 666.283 89.0977 l 1
 560.216 -16.9688 l 1
 532.025 -27.2295 l 1
 475.457 29.3379 l 2
 474.359 30.6465 432.231 -13.6172 428.2 -17.6475 c 2
 378.444 -59.3994 l 1
 319.576 -86.8486 l 1
 291.386 -97.1094 l 1
 227.421 -108.389 l 1
 162.716 -102.727 l 1
 101.682 -80.5117 l 1
 48.4746 -43.2568 l 1
 -8.09277 13.3105 l 1
 -49.8438 63.0674 l 1
 -77.2939 121.935 l 1
 -90.9746 159.522 l 1
 -102.253 223.487 l 1
 -96.5918 288.191 l 1
 -74.377 349.227 l 1
 -37.1211 402.435 l 1
 68.9443 508.501 l 1
 71.5547 510.69 l 1
 57.9531 526.9 l 1
 26.501 613.315 l 1
 26.501 665.277 l 1
 44.2725 714.106 l 1
 77.6729 753.911 l 1
 183.739 859.978 l 1
 228.739 885.957 l 1
 256.93 896.218 l 1
 308.104 905.241 l 1
 359.274 896.218 l 1
 404.274 870.237 l 1
 460.843 813.668 l 1
 494.243 773.864 l 1
 525.695 687.448 l 1
 525.694 635.485 l 1
 507.924 586.658 l 1
 474.523 546.854 l 1
 379.647 451.978 l 1
 446.618 372.165 l 1
243.33 549.294 m 1
 220.588 576.398 l 1
 189.136 662.813 l 1
 189.136 714.776 l 1
 193.139 725.773 l 1
 221.329 736.034 l 1
 258.605 742.606 l 1
 309.777 733.584 l 1
 333.17 720.077 l 1
 363.061 637.95 l 1
 363.061 585.988 l 1
 359.058 574.99 l 1
 330.867 564.729 l 1
 243.33 549.294 l 1
257.84 597.143 m 1
 319.243 607.97 l 1
 321.188 613.315 l 1
 321.189 665.277 l 1
 318.659 672.229 l 1
 295.268 685.735 l 1
 244.096 694.759 l 1
 232.952 692.794 l 1
 231.007 687.449 l 1
 231.007 635.486 l 2
 231.007 635.022 233.962 627.367 235.098 624.246 c 1
 257.84 597.143 l 1
192.484 431.713 m 1
 410.539 171.844 l 1
 424.22 134.256 l 1
 409.862 94.8047 l 1
 369.074 75.7871 l 1
 340.884 65.5264 l 1
 276.919 54.2461 l 1
 212.214 59.9082 l 1
 151.179 82.1221 l 1
 120.039 103.926 l 1
 112.791 112.564 l 1
 85.3408 171.432 l 1
 71.6602 209.02 l 1
 60.3818 272.984 l 1
 66.043 337.688 l 1
 87.2822 396.047 l 1
 128.068 415.065 l 1
 156.259 425.326 l 1
 192.484 431.713 l 1
177.974 383.864 m 1
 151.697 379.231 l 1
 129.154 368.72 l 1
 107.915 310.361 l 1
 102.253 245.657 l 1
 111.192 194.957 l 1
 127.301 160.413 l 1
 134.549 151.774 l 1
 165.689 129.971 l 1
 226.724 107.756 l 1
 291.43 102.095 l 1
 345.447 111.621 l 1
 367.99 122.132 l 1
 376.945 146.738 l 1
 177.974 383.864 l 1
EndSplineSet
EndChar

StartChar: A
Encoding: 65 65 15
Width: 1000
VWidth: 0
GlyphClass: 2
Flags: HW
LayerCount: 2
UndoRedoHistory
Layer: 1
Undoes
EndUndoes
Redoes
EndRedoes
EndUndoRedoHistory
Fore
SplineSet
-26.4580078125 -47.166015625 m 1
 60.3818359375 39.6748046875 l 1
 144.904296875 271.896484375 l 1
 173.094726562 282.157226562 l 1
 404.833007812 282.157226562 l 1
 507.372070312 0.4365234375 l 1
 554.975585938 -47.166015625 l 1
 641.815429688 39.673828125 l 1
 364.779296875 800.82421875 l 1
 317.174804688 848.427734375 l 1
 230.3359375 761.587890625 l 1
 99.8388671875 403.052734375 l 1
 9.87890625 313.091796875 l 1
 31.767578125 291.203125 l 1
 45.4482421875 253.615234375 l 1
 -54.001953125 -19.6220703125 l 1
 -26.4580078125 -47.166015625 l 1
-32.0029296875 -103.979492188 m 1
 -88.572265625 -47.41015625 l 1
 -102.252929688 -9.8232421875 l 1
 -2.802734375 263.415039062 l 1
 -30.265625 290.877929688 l 1
 -43.9462890625 328.465820312 l 1
 57.966796875 430.379882812 l 1
 188.463867188 788.915039062 l 1
 294.529296875 894.98046875 l 1
 322.719726562 905.241210938 l 1
 379.2890625 848.672851562 l 1
 683.6875 12.3466796875 l 1
 577.62109375 -93.71875 l 1
 549.430664062 -103.979492188 l 1
 492.861328125 -47.412109375 l 1
 390.323242188 234.30859375 l 1
 183.041015625 234.30859375 l 1
 102.252929688 12.34765625 l 1
 -3.8115234375 -93.71875 l 1
 -32.0029296875 -103.979492188 l 1
217.778320312 396.944335938 m 1
 204.09765625 434.53125 l 1
 260.7734375 590.247070312 l 1
 288.963867188 600.5078125 l 1
 359.3203125 407.205078125 l 1
 331.129882812 396.944335938 l 1
 217.778320312 396.944335938 l 1
259.649414062 444.791992188 m 1
 313.713867188 444.791992188 l 1
 286.681640625 519.0625 l 1
 259.649414062 444.791992188 l 1
EndSplineSet
EndChar

StartChar: B
Encoding: 66 66 16
Width: 1000
VWidth: 0
GlyphClass: 2
Flags: HWO
LayerCount: 2
UndoRedoHistory
Layer: 1
Undoes
EndUndoes
Redoes
EndRedoes
EndUndoRedoHistory
Fore
SplineSet
-20.3818359375 386.518554688 m 1
 -31.0546875 375.844726562 l 1
 -20.3818359375 346.51953125 l 1
 -20.380859375 -15.0166015625 l 1
 21.623046875 -57.021484375 l 1
 304.575195312 -57.0205078125 l 1
 527.661132812 166.063476562 l 1
 527.66015625 292.15625 l 1
 414.0625 405.75390625 l 1
 400.380859375 443.341796875 l 1
 527.661132812 570.623046875 l 1
 527.661132812 686.71484375 l 1
 357.494140625 856.8828125 l 1
 75.423828125 856.881835938 l 1
 -20.380859375 761.076171875 l 1
 -20.3818359375 386.518554688 l 1
-62.2529296875 413.845703125 m 1
 -62.2529296875 788.403320312 l 1
 43.8134765625 894.469726562 l 1
 72.00390625 904.73046875 l 1
 372.00390625 904.731445312 l 1
 555.8515625 720.8828125 l 1
 569.532226562 683.294921875 l 1
 569.533203125 543.295898438 l 1
 454.206054688 427.96875 l 1
 555.850585938 326.32421875 l 1
 569.53125 288.736328125 l 1
 569.533203125 138.736328125 l 1
 336.186523438 -94.6083984375 l 1
 307.995117188 -104.869140625 l 1
 7.11328125 -104.869140625 l 1
 -48.572265625 -49.1845703125 l 1
 -62.2529296875 -11.5966796875 l 1
 -62.2529296875 349.938476562 l 1
 -68.572265625 356.256835938 l 1
 -82.2529296875 393.844726562 l 1
 -62.2529296875 413.845703125 l 1
114.0625 462.32421875 m 1
 100.381835938 499.912109375 l 1
 100.381835938 731.834960938 l 1
 128.572265625 742.095703125 l 1
 322.505859375 742.096679688 l 1
 393.216796875 671.384765625 l 1
 406.897460938 633.796875 l 1
 406.897460938 493.798828125 l 1
 385.68359375 472.583984375 l 1
 357.493164062 462.323242188 l 1
 114.0625 462.32421875 l 1
142.252929688 510.172851562 m 1
 354.072265625 510.171875 l 1
 365.026367188 521.125976562 l 1
 365.025390625 637.217773438 l 1
 307.99609375 694.248046875 l 1
 142.252929688 694.247070312 l 1
 142.252929688 510.172851562 l 1
114.0625 57.7646484375 m 1
 100.381835938 95.3525390625 l 1
 100.381835938 337.27734375 l 1
 128.572265625 347.538085938 l 1
 322.505859375 347.537109375 l 1
 393.217773438 276.826171875 l 1
 406.8984375 239.23828125 l 1
 406.897460938 89.2392578125 l 1
 385.684570312 68.0263671875 l 1
 357.494140625 57.765625 l 1
 114.0625 57.7646484375 l 1
142.252929688 105.61328125 m 1
 354.073242188 105.614257812 l 1
 365.025390625 116.56640625 l 1
 365.026367188 242.658203125 l 1
 307.99609375 299.688476562 l 1
 142.252929688 299.689453125 l 1
 142.252929688 105.61328125 l 1
-20.3818359375 407.030273438 m 1
 -48.4287109375 378.983398438 l 1
 -34.0625 364.616210938 l 1
 -20.380859375 327.028320312 l 1
 -20.3818359375 -14.505859375 l 1
 21.623046875 -56.509765625 l 1
 304.576171875 -56.5107421875 l 1
 527.66015625 166.575195312 l 1
 527.661132812 292.666992188 l 1
 414.061523438 406.265625 l 1
 400.380859375 443.853515625 l 1
 527.66015625 571.1328125 l 1
 527.66015625 687.2265625 l 1
 357.493164062 857.393554688 l 1
 75.423828125 857.393554688 l 1
 -20.380859375 761.587890625 l 1
 -20.3818359375 407.030273438 l 1
-62.25390625 434.357421875 m 1
 -62.2529296875 788.915039062 l 1
 43.8134765625 894.981445312 l 1
 72.00390625 905.241210938 l 1
 372.002929688 905.2421875 l 1
 555.8515625 721.393554688 l 1
 569.532226562 683.805664062 l 1
 569.532226562 543.805664062 l 1
 454.206054688 428.479492188 l 1
 555.852539062 326.834960938 l 1
 569.533203125 289.247070312 l 1
 569.532226562 139.248046875 l 1
 336.1875 -94.0986328125 l 1
 307.997070312 -104.358398438 l 1
 7.1123046875 -104.358398438 l 1
 -48.572265625 -48.6728515625 l 1
 -62.2529296875 -11.0849609375 l 1
 -62.2529296875 330.44921875 l 1
 -88.5732421875 356.768554688 l 1
 -102.25390625 394.356445312 l 1
 -62.25390625 434.357421875 l 1
114.0625 462.833984375 m 1
 100.381835938 500.421875 l 1
 100.381835938 732.345703125 l 1
 128.572265625 742.606445312 l 1
 322.505859375 742.606445312 l 1
 393.216796875 671.896484375 l 1
 406.897460938 634.30859375 l 1
 406.897460938 494.30859375 l 1
 385.684570312 473.095703125 l 1
 357.494140625 462.834960938 l 1
 114.0625 462.833984375 l 1
142.252929688 510.682617188 m 1
 354.073242188 510.68359375 l 1
 365.025390625 521.635742188 l 1
 365.025390625 637.728515625 l 1
 307.99609375 694.7578125 l 1
 142.252929688 694.7578125 l 1
 142.252929688 510.682617188 l 1
114.0625 58.2763671875 m 1
 100.381835938 95.8642578125 l 1
 100.381835938 337.787109375 l 1
 128.573242188 348.047851562 l 1
 322.505859375 348.048828125 l 1
 393.217773438 277.337890625 l 1
 406.8984375 239.75 l 1
 406.897460938 89.7490234375 l 1
 385.685546875 68.5361328125 l 1
 357.494140625 58.275390625 l 1
 114.0625 58.2763671875 l 1
142.252929688 106.124023438 m 1
 354.07421875 106.124023438 l 1
 365.026367188 117.076171875 l 1
 365.026367188 243.169921875 l 1
 307.995117188 300.200195312 l 1
 142.25390625 300.19921875 l 1
 142.252929688 106.124023438 l 1
EndSplineSet
EndChar

StartChar: D
Encoding: 68 68 17
Width: 1000
VWidth: 0
GlyphClass: 2
Flags: W
LayerCount: 2
Fore
SplineSet
60.3818 626.28 m 1
 88.5723 636.541 l 1
 160.416 564.697 l 1
 174.098 527.109 l 1
 174.097 195.508 l 1
 102.254 123.665 l 1
 74.0625 113.404 l 1
 60.3818 150.992 l 1
 60.3818 626.28 l 1
102.253 560.502 m 1
 102.254 192.864 l 1
 132.225 222.835 l 1
 132.226 530.529 l 1
 102.253 560.502 l 1
-60.3818 -15.0625 m 1
 -26.459 -48.9844 l 1
 294.859 272.334 l 1
 294.86 580.027 l 1
 26.459 848.429 l 1
 -60.3818 761.588 l 1
 -60.3818 -15.0625 l 1
-102.253 -11.6426 m 1
 -102.253 788.915 l 1
 3.8125 894.981 l 1
 32.0039 905.242 l 1
 323.051 614.194 l 1
 336.732 576.606 l 1
 336.73 245.007 l 1
 -3.81348 -95.5371 l 1
 -32.0039 -105.798 l 1
 -88.5723 -49.2295 l 1
 -102.253 -11.6426 l 1
EndSplineSet
EndChar

StartChar: G
Encoding: 71 71 18
Width: 1000
VWidth: 0
GlyphClass: 2
Flags: W
LayerCount: 2
Fore
SplineSet
848.263 826.46 m 1
 817.329 857.394 l 1
 35.4238 857.394 l 1
 -60.3818 761.588 l 1
 -60.3818 -14.3398 l 1
 -17.4932 -57.2285 l 1
 764.411 -57.2275 l 1
 860.217 38.5771 l 1
 860.217 414.589 l 1
 817.328 457.476 l 1
 435.342 457.476 l 1
 351.489 373.624 l 1
 382.424 342.689 l 1
 725.772 342.689 l 1
 739.453 305.103 l 1
 739.454 67.8184 l 1
 711.263 57.5576 l 1
 74.0625 57.5586 l 1
 60.3818 95.1465 l 1
 60.3809 732.346 l 1
 88.5723 742.606 l 1
 764.41 742.607 l 1
 848.263 826.46 l 1
902.088 811.086 m 1
 796.021 705.02 l 1
 767.831 694.759 l 1
 102.253 694.759 l 1
 102.253 105.407 l 1
 697.582 105.406 l 1
 697.582 294.842 l 1
 367.913 294.842 l 1
 311.345 351.409 l 1
 297.664 388.997 l 1
 403.73 495.063 l 1
 431.921 505.324 l 1
 831.838 505.324 l 1
 888.407 448.757 l 1
 902.088 411.169 l 1
 902.088 11.25 l 1
 796.021 -94.8154 l 1
 767.831 -105.076 l 1
 -32.0029 -105.077 l 1
 -88.5723 -48.5068 l 1
 -102.253 -10.9189 l 1
 -102.253 788.915 l 1
 3.8125 894.981 l 1
 32.0039 905.242 l 1
 831.839 905.242 l 1
 888.407 848.674 l 1
 902.088 811.086 l 1
EndSplineSet
EndChar

StartChar: F
Encoding: 70 70 19
Width: 1000
VWidth: 0
GlyphClass: 2
Flags: W
LayerCount: 2
Fore
SplineSet
60.4648 495.091 m 1
 88.6553 505.352 l 1
 331.921 505.352 l 1
 345.602 467.764 l 1
 317.411 457.503 l 1
 74.1455 457.504 l 1
 60.4648 495.091 l 1
74.0625 457.504 m 1
 60.3818 495.092 l 1
 60.3809 732.346 l 1
 88.5723 742.606 l 1
 364.466 742.607 l 1
 448.318 826.458 l 1
 417.384 857.393 l 1
 35.4238 857.394 l 1
 -60.3818 761.588 l 1
 -60.3809 -14.2842 l 1
 -26.459 -48.207 l 1
 60.3818 38.6328 l 1
 60.3818 332.457 l 1
 88.5723 342.717 l 1
 264.492 342.717 l 1
 348.345 426.569 l 1
 317.411 457.503 l 1
 74.0625 457.504 l 1
102.253 505.352 m 1
 331.921 505.352 l 1
 388.489 448.784 l 1
 402.17 411.196 l 1
 296.104 305.129 l 1
 267.912 294.869 l 1
 102.254 294.869 l 1
 102.253 11.3057 l 1
 -3.81348 -94.7598 l 1
 -32.0039 -105.021 l 1
 -88.5723 -48.4512 l 1
 -102.253 -10.8633 l 1
 -102.253 788.915 l 1
 3.8125 894.981 l 1
 32.0039 905.242 l 1
 431.894 905.241 l 1
 488.463 848.672 l 1
 502.144 811.085 l 1
 396.077 705.02 l 1
 367.886 694.759 l 1
 102.253 694.759 l 1
 102.253 505.352 l 1
EndSplineSet
EndChar

StartChar: H
Encoding: 72 72 20
Width: 1000
VWidth: 0
GlyphClass: 2
Flags: W
LayerCount: 2
Fore
SplineSet
-88.5723 351.515 m 1
 -102.253 389.103 l 1
 -102.253 788.915 l 1
 -74.0625 799.175 l 1
 -60.3818 761.588 l 1
 -60.3818 361.775 l 1
 -88.5723 351.515 l 1
-60.3818 -14.1338 m 1
 -26.459 -48.0557 l 1
 60.3818 38.7832 l 1
 60.3809 332.532 l 1
 88.5723 342.793 l 1
 192.481 342.793 l 1
 206.162 305.205 l 1
 206.161 -14.1338 l 1
 240.084 -48.0557 l 1
 326.925 38.7842 l 1
 326.925 814.506 l 1
 293.002 848.428 l 1
 206.162 761.588 l 1
 206.161 467.84 l 1
 177.971 457.58 l 1
 74.0625 457.58 l 1
 60.3818 495.168 l 1
 60.3818 814.505 l 1
 26.459 848.429 l 1
 -60.3818 761.588 l 1
 -60.3818 -14.1338 l 1
-102.253 -10.7139 m 1
 -102.253 788.915 l 1
 3.8125 894.981 l 1
 32.0039 905.242 l 1
 88.5723 848.673 l 1
 102.253 811.085 l 1
 102.253 505.429 l 1
 164.29 505.428 l 1
 164.29 788.915 l 1
 270.356 894.98 l 1
 298.547 905.241 l 1
 355.115 848.673 l 1
 368.797 811.085 l 1
 368.796 11.457 l 1
 262.729 -94.6084 l 1
 234.539 -104.869 l 1
 177.971 -48.3008 l 1
 164.29 -10.7139 l 1
 164.29 294.945 l 1
 102.253 294.945 l 1
 102.253 11.4561 l 1
 -3.81348 -94.6084 l 1
 -32.0039 -104.869 l 1
 -88.5723 -48.3018 l 1
 -102.253 -10.7139 l 1
EndSplineSet
EndChar

StartChar: I
Encoding: 73 73 21
Width: 1000
VWidth: 0
GlyphClass: 2
Flags: W
LayerCount: 2
Fore
SplineSet
-26.459 -48.0557 m 1
 60.3818 38.7832 l 1
 60.3818 814.505 l 1
 26.459 848.429 l 1
 -60.3818 761.588 l 1
 -60.3818 -14.1338 l 1
 -26.459 -48.0557 l 1
-32.0039 -104.869 m 1
 -88.5723 -48.3018 l 1
 -102.253 -10.7139 l 1
 -102.253 788.915 l 1
 3.8125 894.981 l 1
 32.0039 905.242 l 1
 88.5723 848.673 l 1
 102.253 811.085 l 1
 102.253 11.4561 l 1
 -3.81348 -94.6084 l 1
 -32.0039 -104.869 l 1
EndSplineSet
EndChar

StartChar: E
Encoding: 69 69 22
Width: 1000
VWidth: 0
GlyphClass: 2
Flags: W
LayerCount: 2
Fore
SplineSet
-48.4277 -26.0869 m 1
 -17.4941 -57.0215 l 1
 364.39 -57.0215 l 1
 448.241 26.8311 l 1
 417.307 57.7656 l 1
 35.4238 57.7646 l 1
 -48.4277 -26.0869 l 1
-102.253 -10.7139 m 1
 3.8125 95.3525 l 1
 32.0039 105.613 l 1
 431.816 105.614 l 1
 488.385 49.0449 l 1
 502.065 11.457 l 1
 396.001 -94.6094 l 1
 367.81 -104.87 l 1
 -32.0039 -104.869 l 1
 -88.5723 -48.3018 l 1
 -102.253 -10.7139 l 1
-26.459 -48.0557 m 1
 60.3818 38.7832 l 1
 60.3809 332.532 l 1
 88.5723 342.793 l 1
 264.437 342.794 l 1
 348.288 426.646 l 1
 317.354 457.579 l 1
 35.4229 457.58 l 1
 -60.3818 361.775 l 1
 -60.3818 -14.1338 l 1
 -26.459 -48.0557 l 1
-32.0039 -104.869 m 1
 -88.5723 -48.3018 l 1
 -102.253 -10.7139 l 1
 -102.253 389.103 l 1
 3.8125 495.167 l 1
 32.0029 505.428 l 1
 331.863 505.428 l 1
 388.433 448.86 l 1
 402.113 411.272 l 1
 296.047 305.206 l 1
 267.856 294.945 l 1
 102.253 294.945 l 1
 102.253 11.4561 l 1
 -3.81348 -94.6084 l 1
 -32.0039 -104.869 l 1
-26.459 351.759 m 1
 60.3818 438.599 l 1
 60.3809 732.346 l 1
 88.5723 742.606 l 1
 364.389 742.606 l 1
 448.241 826.458 l 1
 417.307 857.393 l 1
 35.4238 857.394 l 1
 -60.3818 761.588 l 1
 -60.3818 385.682 l 1
 -26.459 351.759 l 1
-32.0049 294.945 m 1
 -88.5723 351.515 l 1
 -102.253 389.103 l 1
 -102.253 788.915 l 1
 3.8125 894.981 l 1
 32.0039 905.242 l 1
 431.816 905.241 l 1
 488.385 848.672 l 1
 502.065 811.084 l 1
 395.999 705.019 l 1
 367.809 694.758 l 1
 102.253 694.759 l 1
 102.254 411.271 l 1
 -3.81348 305.206 l 1
 -32.0049 294.945 l 1
EndSplineSet
EndChar

StartChar: O
Encoding: 79 79 23
Width: 1000
VWidth: 0
GlyphClass: 2
Flags: W
LayerCount: 2
Fore
SplineSet
476.214 -48.4365 m 1
 642.843 47.2832 l 1
 748.908 153.35 l 1
 855.424 336.911 l 1
 855.425 534.859 l 1
 762.59 694.845 l 1
 706.021 751.414 l 1
 521.531 857.394 l 1
 318.828 857.394 l 1
 152.201 761.675 l 1
 46.1348 655.608 l 1
 -60.3818 472.045 l 1
 -60.3818 274.098 l 1
 32.4531 114.113 l 1
 89.0225 57.5439 l 1
 273.512 -48.4355 l 1
 476.214 -48.4365 l 1
472.033 -96.2852 m 1
 259.002 -96.2842 l 1
 74.5127 9.69531 l 1
 17.9424 66.2646 l 1
 -88.5723 249.826 l 1
 -102.253 287.414 l 1
 -102.253 499.372 l 1
 4.26367 682.936 l 1
 110.329 789.002 l 1
 294.818 894.981 l 1
 323.01 905.242 l 1
 536.041 905.242 l 1
 720.532 799.263 l 1
 777.1 742.693 l 1
 883.615 559.131 l 1
 897.296 521.543 l 1
 897.296 309.584 l 1
 790.78 126.022 l 1
 684.714 19.9561 l 1
 500.224 -86.0244 l 1
 472.033 -96.2852 l 1
549.721 76.6113 m 1
 521.53 66.3506 l 1
 308.499 66.3496 l 1
 159.625 151.871 l 1
 74.0625 299.323 l 1
 60.3818 336.911 l 1
 60.3809 548.871 l 1
 127.61 664.728 l 1
 245.322 732.346 l 1
 273.514 742.606 l 1
 486.543 742.606 l 1
 635.418 657.087 l 1
 720.98 509.635 l 1
 734.662 472.047 l 1
 734.661 260.087 l 1
 667.434 144.23 l 1
 549.721 76.6113 l 1
525.711 114.199 m 1
 625.562 171.558 l 1
 692.789 287.414 l 1
 692.79 485.363 l 1
 620.908 609.239 l 1
 472.033 694.758 l 1
 269.332 694.758 l 1
 169.481 637.401 l 1
 102.253 521.544 l 1
 102.253 323.596 l 1
 174.135 199.72 l 1
 323.009 114.198 l 1
 525.711 114.199 l 1
EndSplineSet
EndChar

StartChar: J
Encoding: 74 74 24
Width: 1000
VWidth: 0
GlyphClass: 2
Flags: W
LayerCount: 2
Fore
SplineSet
164.807 773.54 m 1
 195.74 742.606 l 1
 325.75 742.606 l 1
 339.432 705.02 l 1
 339.432 68.0254 l 1
 311.241 57.7646 l 1
 35.4238 57.7646 l 1
 -48.4277 -26.0869 l 1
 -17.4941 -57.0215 l 1
 364.39 -57.0215 l 1
 460.194 38.7842 l 1
 460.193 732.347 l 1
 488.385 742.607 l 1
 550.97 742.607 l 1
 634.822 826.459 l 1
 603.888 857.394 l 1
 248.658 857.393 l 1
 164.807 773.54 l 1
110.981 788.914 m 1
 217.047 894.98 l 1
 245.237 905.241 l 1
 618.397 905.242 l 1
 674.966 848.673 l 1
 688.646 811.085 l 1
 582.58 705.02 l 1
 554.39 694.759 l 1
 502.065 694.759 l 1
 502.065 11.457 l 1
 396.001 -94.6094 l 1
 367.81 -104.87 l 1
 -32.0039 -104.869 l 1
 -88.5723 -48.3018 l 1
 -102.253 -10.7139 l 1
 3.8125 95.3525 l 1
 32.0039 105.613 l 1
 297.56 105.613 l 1
 297.56 694.759 l 1
 181.23 694.759 l 1
 124.662 751.326 l 1
 110.981 788.914 l 1
EndSplineSet
EndChar

StartChar: K
Encoding: 75 75 25
Width: 1000
VWidth: 0
GlyphClass: 2
Flags: W
LayerCount: 2
Fore
SplineSet
26.458 829.486 m 1
 -60.3818 742.646 l 1
 -60.3818 -14.1338 l 1
 -26.459 -48.0557 l 1
 60.3818 38.7832 l 1
 60.3809 795.563 l 1
 26.458 829.486 l 1
32.0029 886.3 m 1
 88.5713 829.73 l 1
 102.252 792.143 l 1
 102.253 11.4561 l 1
 -3.81348 -94.6084 l 1
 -32.0039 -104.869 l 1
 -88.5723 -48.3018 l 1
 -102.253 -10.7139 l 1
 -102.253 769.973 l 1
 3.81152 876.039 l 1
 32.0029 886.3 l 1
-26.459 420.355 m 1
 21.625 468.439 l 1
 49.8154 478.7 l 1
 379.358 8.0625 l 1
 426.962 -39.54 l 1
 506.369 39.8672 l 1
 151.347 546.891 l 1
 137.665 584.479 l 1
 379.646 826.459 l 1
 357.676 848.429 l 1
 -48.4277 442.324 l 1
 -26.459 420.355 l 1
-32.0039 363.542 m 1
 -88.5723 420.109 l 1
 -102.253 457.697 l 1
 335.03 894.981 l 1
 363.221 905.242 l 1
 419.789 848.673 l 1
 433.471 811.085 l 1
 186.971 564.585 l 1
 541.993 57.5615 l 1
 555.674 19.9736 l 1
 449.608 -86.0928 l 1
 421.417 -96.3535 l 1
 364.849 -39.7852 l 1
 42.6895 420.306 l 1
 -3.81348 373.803 l 1
 -32.0039 363.542 l 1
EndSplineSet
EndChar

StartChar: L
Encoding: 76 76 26
Width: 1000
VWidth: 0
GlyphClass: 2
Flags: W
LayerCount: 2
Fore
SplineSet
26.459 848.429 m 1
 -60.3818 761.588 l 1
 -60.3818 -14.1338 l 1
 -17.4941 -57.0215 l 1
 364.39 -57.0215 l 1
 448.241 26.8311 l 1
 417.307 57.7656 l 1
 74.0625 57.7646 l 1
 60.3818 95.3525 l 1
 60.3818 814.505 l 1
 26.459 848.429 l 1
32.0039 905.242 m 1
 88.5723 848.673 l 1
 102.253 811.085 l 1
 102.253 105.613 l 1
 431.816 105.614 l 1
 488.385 49.0449 l 1
 502.065 11.457 l 1
 396.001 -94.6094 l 1
 367.81 -104.87 l 1
 -32.0039 -104.869 l 1
 -88.5723 -48.3018 l 1
 -102.253 -10.7139 l 1
 -102.253 788.915 l 1
 3.8125 894.981 l 1
 32.0039 905.242 l 1
EndSplineSet
EndChar

StartChar: M
Encoding: 77 77 27
Width: 1000
VWidth: 0
GlyphClass: 2
Flags: W
LayerCount: 2
Fore
SplineSet
773.651 -52.0625 m 1
 860.491 34.7773 l 1
 672.454 800.983 l 1
 630.756 842.681 l 1
 543.916 755.84 l 1
 429.222 311.007 l 1
 401.031 300.746 l 1
 387.351 338.334 l 1
 272.398 806.73 l 1
 230.701 848.428 l 1
 143.861 761.587 l 1
 -55.4814 -11.5449 l 1
 -26.459 -40.5664 l 1
 60.3818 46.2734 l 1
 175.075 491.106 l 1
 203.267 501.366 l 1
 216.947 463.779 l 1
 331.897 -4.61816 l 1
 373.596 -46.3154 l 1
 460.437 40.5254 l 1
 575.131 485.358 l 1
 603.321 495.619 l 1
 617.002 458.031 l 1
 731.954 -10.3643 l 1
 773.651 -52.0625 l 1
768.106 -108.876 m 1
 711.538 -52.3066 l 1
 697.857 -14.7197 l 1
 598.985 388.155 l 1
 502.308 13.1982 l 1
 396.241 -92.8682 l 1
 368.051 -103.129 l 1
 311.482 -46.5615 l 1
 297.801 -8.97363 l 1
 198.931 393.902 l 1
 102.253 18.9463 l 1
 -3.81348 -87.1191 l 1
 -32.0039 -97.3799 l 1
 -88.5723 -40.8125 l 1
 -102.253 -3.22461 l 1
 101.989 788.914 l 1
 208.056 894.98 l 1
 236.246 905.241 l 1
 292.814 848.674 l 1
 306.495 811.086 l 1
 405.367 408.21 l 1
 502.044 783.167 l 1
 608.11 889.233 l 1
 636.301 899.493 l 1
 692.869 842.926 l 1
 706.55 805.338 l 1
 902.363 7.4502 l 1
 796.297 -98.6162 l 1
 768.106 -108.876 l 1
EndSplineSet
EndChar

StartChar: N
Encoding: 78 78 28
Width: 1000
VWidth: 0
GlyphClass: 2
Flags: W
LayerCount: 2
Fore
SplineSet
-26.459 -40.0195 m 1
 60.3818 46.8213 l 1
 60.3818 626.28 l 1
 88.5723 636.541 l 1
 773.169 -48.0566 l 1
 860.01 38.7842 l 1
 860.009 806.469 l 1
 826.087 840.392 l 1
 739.247 753.552 l 1
 739.246 174.093 l 1
 711.055 163.832 l 1
 26.459 848.429 l 1
 -60.3818 761.588 l 1
 -60.3818 -6.0957 l 1
 -26.459 -40.0195 l 1
-32.0039 -96.833 m 1
 -88.5723 -40.2637 l 1
 -102.254 -2.67578 l 1
 -102.253 788.915 l 1
 3.8125 894.981 l 1
 32.0039 905.242 l 1
 697.374 239.871 l 1
 697.375 780.879 l 1
 803.441 886.944 l 1
 831.633 897.204 l 1
 888.2 840.637 l 1
 901.881 803.049 l 1
 901.882 11.457 l 1
 795.814 -94.6094 l 1
 767.624 -104.87 l 1
 102.253 560.502 l 1
 102.253 19.4941 l 1
 -3.81348 -86.5723 l 1
 -32.0039 -96.833 l 1
EndSplineSet
EndChar

StartChar: T
Encoding: 84 84 29
Width: 1000
VWidth: 0
GlyphClass: 2
Flags: W
LayerCount: 2
Fore
SplineSet
133.468 -48.0557 m 1
 220.308 38.7832 l 1
 220.307 732.346 l 1
 248.498 742.606 l 1
 284.427 742.607 l 1
 368.278 826.459 l 1
 337.345 857.394 l 1
 35.4238 857.394 l 1
 -48.4277 773.541 l 1
 -17.4941 742.607 l 1
 85.8643 742.606 l 1
 99.5459 705.019 l 1
 99.5439 -14.1338 l 1
 133.468 -48.0557 l 1
127.923 -104.869 m 1
 71.3535 -48.3018 l 1
 57.6729 -10.7139 l 1
 57.6738 694.759 l 1
 -32.0039 694.759 l 1
 -88.5723 751.327 l 1
 -102.253 788.915 l 1
 3.8125 894.981 l 1
 32.0039 905.242 l 1
 351.854 905.241 l 1
 408.423 848.674 l 1
 422.104 811.086 l 1
 316.038 705.02 l 1
 287.848 694.759 l 1
 262.179 694.759 l 1
 262.179 11.4561 l 1
 156.113 -94.6084 l 1
 127.923 -104.869 l 1
EndSplineSet
EndChar

StartChar: P
Encoding: 80 80 30
Width: 1000
VWidth: 0
GlyphClass: 2
Flags: W
LayerCount: 2
Fore
SplineSet
60.3818 217.553 m 1
 88.5723 227.813 l 1
 284.428 227.813 l 1
 531.012 474.398 l 1
 531.012 663.726 l 1
 337.345 857.394 l 1
 35.4238 857.394 l 1
 -60.3818 761.588 l 1
 -60.3818 -14.1338 l 1
 -26.459 -48.0557 l 1
 60.3818 38.7832 l 1
 60.3818 217.553 l 1
102.253 179.965 m 1
 102.253 11.4561 l 1
 -3.81348 -94.6084 l 1
 -32.0039 -104.869 l 1
 -88.5723 -48.3018 l 1
 -102.253 -10.7139 l 1
 -102.253 788.915 l 1
 3.8125 894.981 l 1
 32.0039 905.242 l 1
 351.854 905.241 l 1
 559.202 697.894 l 1
 572.883 660.306 l 1
 572.883 447.071 l 1
 316.038 190.227 l 1
 287.848 179.966 l 1
 102.253 179.965 l 1
74.0625 342.601 m 1
 60.3818 380.188 l 1
 60.3809 732.346 l 1
 88.5723 742.606 l 1
 302.357 742.607 l 1
 396.567 648.397 l 1
 410.248 610.81 l 1
 410.248 397.573 l 1
 365.536 352.86 l 1
 337.345 342.6 l 1
 74.0625 342.601 l 1
102.254 390.448 m 1
 333.925 390.448 l 1
 368.377 424.9 l 1
 368.376 614.229 l 1
 287.848 694.759 l 1
 102.253 694.759 l 1
 102.254 390.448 l 1
EndSplineSet
EndChar

StartChar: Q
Encoding: 81 81 31
Width: 1000
VWidth: 0
GlyphClass: 2
Flags: W
LayerCount: 2
Fore
SplineSet
664.881 6.64746 m 1
 651.2 44.2354 l 1
 752.88 145.914 l 1
 860.01 331.469 l 1
 860.01 531.837 l 1
 766.561 693.695 l 1
 709.992 750.263 l 1
 524.438 857.393 l 1
 320.597 857.394 l 1
 152.814 760.524 l 1
 46.748 654.457 l 1
 -60.3809 468.904 l 1
 -60.3818 268.537 l 1
 33.0674 106.677 l 1
 89.6357 50.1084 l 1
 275.19 -57.0215 l 1
 489.449 -57.0215 l 1
 677.643 -125.519 l 1
 756.709 -46.4492 l 1
 725.775 -15.5156 l 1
 664.881 6.64746 l 1
716.979 40.8154 m 1
 740.285 32.333 l 1
 796.853 -24.2354 l 1
 810.534 -61.8232 l 1
 704.469 -167.891 l 1
 676.278 -178.151 l 1
 474.939 -104.87 l 1
 260.681 -104.87 l 1
 75.126 2.26074 l 1
 18.5576 58.8281 l 1
 -88.5723 244.385 l 1
 -102.253 281.973 l 1
 -102.253 496.231 l 1
 4.87695 681.784 l 1
 110.942 787.851 l 1
 296.497 894.98 l 1
 324.688 905.241 l 1
 538.947 905.241 l 1
 724.502 798.111 l 1
 781.07 741.543 l 1
 888.2 555.99 l 1
 901.881 518.402 l 1
 901.881 304.142 l 1
 794.751 118.587 l 1
 716.979 40.8154 l 1
552.627 68.0244 m 1
 524.437 57.7637 l 1
 310.178 57.7646 l 1
 160.487 144.189 l 1
 74.0625 293.881 l 1
 60.3818 331.469 l 1
 60.3809 545.729 l 1
 128.688 664.039 l 1
 247 732.347 l 1
 275.19 742.607 l 1
 489.449 742.606 l 1
 639.142 656.183 l 1
 725.566 506.491 l 1
 739.248 468.903 l 1
 739.246 254.645 l 1
 670.939 136.332 l 1
 552.627 68.0244 l 1
528.527 105.612 m 1
 629.068 163.659 l 1
 697.375 281.972 l 1
 697.376 482.339 l 1
 624.632 608.334 l 1
 474.938 694.759 l 1
 271.1 694.759 l 1
 170.56 636.713 l 1
 102.253 518.401 l 1
 102.254 318.033 l 1
 174.997 192.038 l 1
 324.688 105.613 l 1
 528.527 105.612 l 1
EndSplineSet
EndChar

StartChar: R
Encoding: 82 82 32
Width: 1000
VWidth: 0
GlyphClass: 2
Flags: HW
LayerCount: 2
UndoRedoHistory
Layer: 1
Undoes
EndUndoes
Redoes
EndRedoes
EndUndoRedoHistory
Fore
SplineSet
0 0 m 1
 0 800 l 1
 300 800 l 1
 427.279296875 672.720703125 l 1
 427.279296875 472.720703125 l 1
 300 345.44140625 l 1
 0 345.44140625 l 1
 300 345.44140625 l 1
 540.90234375 1.3974609375 l 1
EndSplineSet
EndChar

StartChar: S
Encoding: 83 83 33
Width: 1000
VWidth: 0
GlyphClass: 2
Flags: W
LayerCount: 2
Fore
SplineSet
112.53 313.913 m 1
 120.43 292.209 l 1
 108.374 259.087 l 1
 102.253 224.372 l 1
 102.253 189.126 l 1
 107.955 156.788 l 1
 121.844 132.731 l 1
 147.988 117.637 l 1
 181.111 105.582 l 1
 215.825 99.4609 l 1
 251.073 99.46 l 1
 284.746 105.398 l 1
 294.518 132.241 l 1
 300.639 166.954 l 1
 300.638 202.202 l 1
 294.936 234.54 l 1
 281.047 258.597 l 1
 254.901 273.69 l 1
 221.778 285.747 l 1
 152.353 297.989 l 1
 119.229 310.045 l 1
 112.53 313.913 l 1
32.2051 379.823 m 1
 5.13379 406.895 l 1
 -17.5234 433.896 l 1
 -35.1475 464.422 l 1
 -60.8838 535.134 l 1
 -67.0049 569.846 l 1
 -67.0049 605.094 l 1
 -60.8848 639.807 l 1
 -48.8281 672.929 l 1
 -31.2041 703.454 l 1
 -8.54785 730.457 l 1
 97.5195 836.523 l 1
 124.521 859.18 l 1
 155.047 876.803 l 1
 216.36 899.12 l 1
 251.074 905.241 l 1
 286.32 905.241 l 1
 321.033 899.12 l 1
 354.156 887.065 l 1
 384.684 869.44 l 1
 411.685 846.783 l 1
 468.253 790.215 l 1
 490.91 763.213 l 1
 508.535 732.688 l 1
 522.217 695.1 l 1
 416.149 589.034 l 1
 387.958 578.773 l 1
 331.391 635.342 l 1
 316.295 661.488 l 1
 290.149 676.581 l 1
 257.026 688.638 l 1
 222.312 694.759 l 1
 187.065 694.758 l 1
 153.392 688.821 l 1
 143.623 661.978 l 1
 137.501 627.265 l 1
 137.501 592.017 l 1
 143.203 559.679 l 1
 157.092 535.623 l 1
 183.237 520.527 l 1
 216.36 508.472 l 1
 285.785 496.229 l 1
 318.908 484.175 l 1
 349.435 466.55 l 1
 376.437 443.893 l 1
 433.006 387.325 l 1
 455.662 360.323 l 1
 473.286 329.798 l 1
 499.022 259.087 l 1
 505.144 224.372 l 1
 505.144 189.125 l 1
 499.024 154.412 l 1
 486.968 121.289 l 1
 469.343 90.7627 l 1
 446.686 63.7627 l 1
 340.619 -42.3037 l 1
 313.618 -64.9609 l 1
 283.092 -82.5859 l 1
 221.778 -104.902 l 1
 187.065 -111.022 l 1
 151.817 -111.022 l 1
 117.104 -104.901 l 1
 83.9814 -92.8457 l 1
 53.4561 -75.2217 l 1
 26.4541 -52.5645 l 1
 -30.1143 4.00391 l 1
 -52.7715 31.0059 l 1
 -70.3945 61.5312 l 1
 -96.1318 132.242 l 1
 -102.253 166.954 l 1
 -102.253 202.202 l 1
 -96.1318 236.915 l 1
 -84.0762 270.038 l 1
 21.9893 376.105 l 1
 32.2051 379.823 l 1
44.6357 329.552 m 1
 -42.2051 242.712 l 1
 -54.2607 209.588 l 1
 -60.3809 174.875 l 1
 -60.3809 139.627 l 1
 -54.6797 107.293 l 1
 -38.2617 78.8545 l 1
 -15.6045 51.8525 l 1
 40.9648 -4.7168 l 1
 67.9658 -27.374 l 1
 98.4912 -44.998 l 1
 131.615 -57.0537 l 1
 166.327 -63.1738 l 1
 201.575 -63.1748 l 1
 236.288 -57.0537 l 1
 241.221 -55.2588 l 1
 271.746 -37.6338 l 1
 298.747 -14.9766 l 1
 404.814 91.0898 l 1
 427.472 118.09 l 1
 445.096 148.616 l 1
 457.152 181.738 l 1
 463.271 216.452 l 1
 463.272 251.699 l 1
 457.57 284.038 l 1
 441.152 312.475 l 1
 418.496 339.477 l 1
 361.927 396.044 l 1
 334.925 418.701 l 1
 304.398 436.326 l 1
 271.275 448.381 l 1
 201.851 460.623 l 1
 168.728 472.679 l 1
 142.581 487.774 l 1
 127.487 513.919 l 1
 101.75 584.63 l 1
 95.6299 619.344 l 1
 95.6299 654.592 l 1
 101.751 689.305 l 1
 111.603 716.373 l 1
 166.862 736.486 l 1
 201.575 742.606 l 1
 236.823 742.607 l 1
 271.536 736.485 l 1
 304.659 724.43 l 1
 330.805 709.337 l 1
 345.9 683.19 l 1
 393.503 635.587 l 1
 474.978 717.06 l 1
 453.743 742.367 l 1
 397.175 798.935 l 1
 370.174 821.593 l 1
 339.646 839.217 l 1
 306.523 851.271 l 1
 271.811 857.394 l 1
 236.563 857.393 l 1
 201.856 851.273 l 1
 196.918 849.476 l 1
 166.393 831.853 l 1
 139.391 809.196 l 1
 33.3242 703.13 l 1
 10.668 676.127 l 1
 -6.95703 645.602 l 1
 -19.0127 612.479 l 1
 -25.1338 577.767 l 1
 -25.1338 542.519 l 1
 -19.4307 510.18 l 1
 -3.01367 481.745 l 1
 19.6436 454.743 l 1
 76.2129 398.174 l 1
 103.214 375.517 l 1
 133.74 357.893 l 1
 166.863 345.837 l 1
 236.288 333.595 l 1
 269.411 321.539 l 1
 295.557 306.445 l 1
 310.651 280.299 l 1
 336.389 209.589 l 1
 342.509 174.875 l 1
 342.51 139.627 l 1
 336.39 104.914 l 1
 326.536 77.8467 l 1
 271.275 57.7334 l 1
 236.563 51.6123 l 1
 201.315 51.6123 l 1
 166.601 57.7334 l 1
 133.479 69.7881 l 1
 107.334 84.8828 l 1
 92.2393 111.028 l 1
 66.5029 181.739 l 1
 60.3818 216.453 l 1
 60.3809 251.699 l 1
 66.5029 286.414 l 1
 72.1787 302.009 l 1
 44.6357 329.552 l 1
EndSplineSet
EndChar

StartChar: V
Encoding: 86 86 34
Width: 1000
VWidth: 0
GlyphClass: 2
Flags: W
LayerCount: 2
Fore
SplineSet
26.459 848.429 m 1
 -57.2148 764.755 l 1
 310.622 13.2471 l 1
 358.226 -34.3564 l 1
 445.065 52.4844 l 1
 838.19 816.963 l 1
 812.388 842.767 l 1
 725.548 755.928 l 1
 420.04 161.832 l 1
 391.85 151.571 l 1
 74.0625 800.824 l 1
 26.459 848.429 l 1
32.0039 905.242 m 1
 88.5723 848.673 l 1
 395.186 222.25 l 1
 683.676 783.255 l 1
 789.741 889.319 l 1
 817.933 899.58 l 1
 874.501 843.012 l 1
 888.182 805.425 l 1
 486.938 25.1572 l 1
 380.871 -80.9092 l 1
 352.681 -91.1699 l 1
 296.112 -34.6006 l 1
 -88.5723 751.327 l 1
 -102.253 788.915 l 1
 3.8125 894.981 l 1
 32.0039 905.242 l 1
EndSplineSet
EndChar

StartChar: W
Encoding: 87 87 35
Width: 1000
VWidth: 0
GlyphClass: 2
Flags: W
LayerCount: 2
Fore
SplineSet
26.459 848.429 m 1
 -60.3818 761.588 l 1
 125.627 1.34961 l 1
 167.295 -40.3174 l 1
 254.134 46.5225 l 1
 366.7 484.421 l 1
 394.892 494.682 l 1
 408.572 457.094 l 1
 521.475 -4.35547 l 1
 563.142 -46.0225 l 1
 649.982 40.8184 l 1
 847.185 807.985 l 1
 818.151 837.02 l 1
 731.312 750.18 l 1
 618.749 312.281 l 1
 590.558 302.021 l 1
 576.877 339.608 l 1
 463.974 801.058 l 1
 422.306 842.725 l 1
 335.466 755.884 l 1
 222.9 317.984 l 1
 194.709 307.725 l 1
 181.028 345.312 l 1
 68.126 806.762 l 1
 26.459 848.429 l 1
32.0039 905.242 m 1
 88.5723 848.673 l 1
 102.253 811.085 l 1
 199.056 415.44 l 1
 293.595 783.211 l 1
 399.659 889.277 l 1
 427.851 899.538 l 1
 484.42 842.97 l 1
 498.101 805.382 l 1
 594.904 409.737 l 1
 689.44 777.507 l 1
 795.506 883.572 l 1
 823.696 893.833 l 1
 880.265 837.265 l 1
 893.945 799.677 l 1
 691.854 13.4912 l 1
 585.787 -92.5762 l 1
 557.596 -102.836 l 1
 501.028 -46.2666 l 1
 487.348 -8.67969 l 1
 390.545 386.966 l 1
 296.006 19.1953 l 1
 189.94 -86.8701 l 1
 161.75 -97.1309 l 1
 105.18 -40.5625 l 1
 91.499 -2.97461 l 1
 -102.253 788.915 l 1
 3.8125 894.981 l 1
 32.0039 905.242 l 1
EndSplineSet
EndChar

StartChar: X
Encoding: 88 88 36
Width: 1000
VWidth: 0
GlyphClass: 2
Flags: W
LayerCount: 2
Fore
SplineSet
474.341 400.546 m 1
 460.66 438.134 l 1
 848.984 826.459 l 1
 827.016 848.428 l 1
 445.963 467.376 l 1
 417.772 457.115 l 1
 26.459 848.429 l 1
 -48.4277 773.541 l 1
 326.216 398.897 l 1
 339.896 361.31 l 1
 -48.4277 -27.0156 l 1
 -26.459 -48.9844 l 1
 354.594 332.067 l 1
 382.785 342.328 l 1
 774.099 -48.9844 l 1
 848.985 25.9023 l 1
 474.341 400.546 l 1
514.485 422.761 m 1
 889.129 48.1162 l 1
 902.81 10.5283 l 1
 796.745 -95.5371 l 1
 768.554 -105.798 l 1
 377.24 285.515 l 1
 -3.81348 -95.5371 l 1
 -32.0039 -105.798 l 1
 -88.5723 -49.2295 l 1
 -102.253 -11.6426 l 1
 286.072 376.683 l 1
 -88.5723 751.327 l 1
 -102.253 788.915 l 1
 3.8125 894.981 l 1
 32.0039 905.242 l 1
 423.317 513.929 l 1
 804.37 894.98 l 1
 832.561 905.241 l 1
 889.129 848.673 l 1
 902.81 811.086 l 1
 514.485 422.761 l 1
EndSplineSet
EndChar

StartChar: U
Encoding: 85 85 37
Width: 1000
VWidth: 0
GlyphClass: 2
Flags: W
LayerCount: 2
Fore
SplineSet
48.7666 -27.0156 m 1
 79.7002 -57.9492 l 1
 342.317 -57.9492 l 1
 537.312 137.044 l 1
 537.312 814.505 l 1
 503.39 848.429 l 1
 416.55 761.588 l 1
 416.55 67.0967 l 1
 388.358 56.8359 l 1
 132.618 56.8369 l 1
 48.7666 -27.0156 l 1
-5.05859 -11.6416 m 1
 101.007 94.4248 l 1
 129.198 104.686 l 1
 374.678 104.685 l 1
 374.679 788.915 l 1
 480.743 894.981 l 1
 508.935 905.242 l 1
 565.503 848.673 l 1
 579.184 811.085 l 1
 579.184 109.717 l 1
 373.929 -95.5371 l 1
 345.737 -105.798 l 1
 65.1904 -105.798 l 1
 8.62207 -49.2295 l 1
 -5.05859 -11.6416 l 1
26.459 848.429 m 1
 -60.3818 761.588 l 1
 -60.3809 84.127 l 1
 72.7285 -48.9844 l 1
 147.616 25.9023 l 1
 116.682 56.8359 l 2
 108.031 65.4873 82.7568 78.5127 75.4844 93.4434 c 1
 75.4844 93.4434 75.1484 94.209 74.9238 94.832 c 2
 61.2432 132.419 l 2
 60.6855 133.965 60.3818 135.509 60.3818 137.044 c 2
 60.3818 814.505 l 1
 26.459 848.429 l 1
32.0039 905.242 m 1
 88.5723 848.673 l 1
 102.253 811.085 l 1
 102.254 126.915 l 1
 111.854 118.653 125.72 110.156 131.191 104.685 c 2
 187.761 48.1172 l 1
 201.441 10.5293 l 1
 95.375 -95.5371 l 1
 67.1836 -105.798 l 1
 -88.5723 49.959 l 1
 -102.253 87.5469 l 1
 -102.253 788.915 l 1
 3.8125 894.981 l 1
 32.0039 905.242 l 1
EndSplineSet
EndChar

StartChar: Y
Encoding: 89 89 38
Width: 1000
VWidth: 0
GlyphClass: 2
Flags: W
LayerCount: 2
Fore
SplineSet
172.722 121.142 m 1
 144.531 110.881 l 1
 -102.253 788.915 l 1
 -74.0625 799.175 l 1
 172.722 121.142 l 1
107.767 -8.38281 m 1
 148.368 -48.9844 l 1
 235.208 37.8555 l 1
 520.209 820.885 l 1
 492.665 848.429 l 1
 405.824 761.588 l 1
 263.047 369.309 l 1
 234.856 359.048 l 1
 74.0625 800.824 l 1
 26.459 848.429 l 1
 -60.3818 761.588 l 1
 107.767 -8.38281 l 1
72.5742 -11.6416 m 1
 -102.253 788.915 l 1
 3.8125 894.981 l 1
 32.0039 905.242 l 1
 88.5723 848.673 l 1
 237.138 440.492 l 1
 363.952 788.914 l 1
 470.02 894.981 l 1
 498.21 905.242 l 1
 554.779 848.673 l 1
 568.46 811.085 l 1
 277.08 10.5283 l 1
 171.014 -95.5371 l 1
 142.822 -105.798 l 1
 86.2549 -49.2295 l 1
 72.5742 -11.6416 l 1
EndSplineSet
EndChar

StartChar: Z
Encoding: 90 90 39
Width: 1000
VWidth: 0
GlyphClass: 2
Flags: W
LayerCount: 2
Fore
SplineSet
-2.64453 773.541 m 1
 28.29 742.606 l 1
 669.926 742.606 l 1
 683.606 705.02 l 1
 -48.4277 -27.0156 l 1
 -17.4941 -57.9492 l 1
 719.348 -57.9492 l 1
 803.199 25.9033 l 1
 772.266 56.8369 l 1
 130.631 56.8369 l 1
 116.95 94.4248 l 1
 848.984 826.459 l 1
 818.051 857.393 l 1
 81.208 857.394 l 1
 -2.64453 773.541 l 1
-56.4697 788.915 m 1
 49.5977 894.981 l 1
 77.7881 905.242 l 1
 832.561 905.241 l 1
 889.129 848.673 l 1
 902.81 811.086 l 1
 196.409 104.685 l 1
 786.775 104.686 l 1
 843.344 48.1172 l 1
 857.024 10.5293 l 1
 750.959 -95.5371 l 1
 722.769 -105.798 l 1
 -32.0039 -105.798 l 1
 -88.5723 -49.2295 l 1
 -102.253 -11.6426 l 1
 604.147 694.759 l 1
 13.7803 694.758 l 1
 -42.7891 751.327 l 1
 -56.4697 788.915 l 1
EndSplineSet
EndChar

StartChar: u1F422
Encoding: 65536 128034 40
Width: 1000
VWidth: 0
GlyphClass: 2
Flags: W
LayerCount: 2
Fore
SplineSet
329.959 905.241 m 1
 330.844 904.36 330.928 904.274 330.043 905.157 c 2
 330.043 905.157 639.636 905.242 667.882 905.242 c 1
 882.61 690.514 l 1
 896.291 652.926 l 1
 851.174 607.809 l 1
 863.536 573.845 l 1
 757.469 467.777 l 1
 729.278 457.517 l 1
 673.36 457.517 l 1
 594.279 536.598 l 1
 332.619 536.598 l 1
 263.8 467.777 l 1
 235.608 457.517 l 1
 179.69 457.519 l 1
 123.122 514.086 l 1
 114.928 536.599 l 1
 -32.0049 536.599 l 1
 -88.5723 593.168 l 1
 -102.253 630.756 l 1
 -102.253 714.632 l 1
 3.81348 820.698 l 1
 32.0039 830.959 l 1
 115.881 830.959 l 1
 198.991 792.202 l 1
 301.031 894.243 l 1
 329.959 905.241 l 1
333.38 857.393 m 1
 224.899 748.912 l 1
 196.709 738.651 l 1
 101.37 783.11 l 1
 35.4238 783.11 l 1
 -60.3818 687.305 l 1
 -60.3818 627.335 l 1
 -17.4941 584.446 l 1
 160.144 584.447 l 1
 173.824 546.859 l 1
 163.266 536.301 l 1
 194.2 505.366 l 1
 232.188 505.365 l 1
 301.009 574.186 l 1
 329.199 584.446 l 1
 608.789 584.446 l 1
 687.87 505.365 l 1
 725.858 505.365 l 1
 810.862 590.37 l 1
 798.501 624.333 l 1
 842.466 668.3 l 1
 653.372 857.394 l 1
 333.38 857.393 l 1
EndSplineSet
EndChar
